<svg version="1.1" id="Layer_1" xmlns="http://www.w3.org/2000/svg" xmlns:xlink="http://www.w3.org/1999/xlink" x="0px" y="0px"
	 width="100%" viewBox="0 0 234 302" enable-background="new 0 0 234 302" xml:space="preserve">
<path fill="#E4EBEC" opacity="1.000000" stroke="none" 
	d="
M56.000000,1.000000 
	C57.066788,1.000000 58.133575,1.000000 59.627869,1.467459 
	C60.055378,7.508746 60.055378,13.082574 60.055378,18.910704 
	C64.213852,18.910704 67.684967,18.923397 71.155968,18.908735 
	C105.393715,18.764118 139.631439,18.614962 174.159424,18.512897 
	C174.575760,18.030758 174.701843,17.502815 174.875900,16.514206 
	C174.997986,11.714779 175.072083,7.376017 175.455902,2.935222 
	C176.529709,2.489315 177.293808,2.145441 178.430756,2.044432 
	C178.803604,7.435076 178.803604,12.582856 178.803604,18.382141 
	C192.487732,18.382141 205.722824,18.382141 219.124725,18.382141 
	C219.124725,108.185135 219.124725,197.333450 219.124725,286.617310 
	C151.278458,286.617310 83.901115,286.617310 16.299372,286.617310 
	C16.152311,284.238129 16.021141,282.115997 15.968664,279.599670 
	C16.004910,278.138397 15.962464,277.071350 16.005169,275.542297 
	C16.017721,268.384705 15.945124,261.689117 15.949731,254.530899 
	C15.975970,241.047516 15.925005,228.026764 15.956751,214.543442 
	C16.047171,209.599396 16.068148,205.117889 16.060417,200.636459 
	C16.012901,173.089401 15.958899,145.542343 15.983376,117.533417 
	C16.002426,111.716621 15.945155,106.361702 15.976820,100.545128 
	C16.013992,77.053612 15.962228,54.023758 15.989004,30.624544 
	C16.017416,29.505236 15.967289,28.755283 16.006618,27.562527 
	C16.096073,24.370296 16.096073,21.620872 16.096073,18.434603 
	C29.622467,18.434603 42.439770,18.434603 55.683449,18.434603 
	C55.683449,12.701036 55.683449,7.425996 55.826752,1.880841 
	C55.980030,1.407150 55.990013,1.203575 56.000000,1.000000 
M142.353958,59.449734 
	C142.235672,57.966587 142.117386,56.483437 142.105469,54.256229 
	C140.462524,51.469193 139.468643,47.553093 137.029556,46.150963 
	C133.039642,43.857300 128.109116,43.199886 122.966888,41.671410 
	C122.966888,37.620266 122.966888,32.497318 122.966888,26.991472 
	C119.773613,26.991472 116.884872,26.991472 113.437897,27.014370 
	C113.333420,27.338049 113.228943,27.661730 112.937416,28.829636 
	C113.002518,30.552994 113.067627,32.276352 112.966629,34.821793 
	C113.015305,36.214520 113.063980,37.607246 112.950882,39.660820 
	C113.008339,40.107136 113.065804,40.553452 112.966080,41.790894 
	C113.029259,42.860611 113.092445,43.930325 112.978340,45.657845 
	C113.033203,46.105148 113.088066,46.552452 112.979172,47.660995 
	C113.041130,48.107395 113.103081,48.553791 112.992615,49.767303 
	C112.814735,50.848888 112.636864,51.930473 112.321747,53.846603 
	C107.054916,45.206852 101.949661,42.568787 95.171349,44.313869 
	C89.911346,45.668056 85.445229,51.135963 85.073769,56.676437 
	C84.669289,62.709427 87.775887,68.264618 93.193031,70.260918 
	C102.634834,73.740379 108.573776,69.142487 112.612137,60.743004 
	C117.893234,70.125557 123.149628,73.214417 130.991104,71.849915 
	C136.929016,70.816650 141.042343,66.371902 142.353958,59.449734 
M119.500061,122.054329 
	C90.906754,122.054329 62.313442,122.054329 33.688225,122.054329 
	C33.688225,127.212303 33.688225,131.790207 33.688225,136.540436 
	C89.631622,136.540436 145.136688,136.540436 201.027496,136.540436 
	C201.027496,133.240387 200.757919,130.393875 201.088699,127.618919 
	C201.626907,123.103714 199.750763,122.000816 195.457504,122.026749 
	C170.472549,122.177643 145.485992,122.064362 119.500061,122.054329 
M70.500069,199.226944 
	C86.990623,199.227890 103.481171,199.233078 119.971725,199.228745 
	C145.291306,199.222092 170.611115,199.247635 195.929962,199.106674 
	C197.526123,199.097794 200.387817,197.915558 200.490356,197.028351 
	C200.975937,192.826767 200.707153,188.538010 200.707153,184.327530 
	C144.783340,184.327530 89.405724,184.327530 34.153912,184.327530 
	C34.153912,189.446213 34.153912,194.182526 34.153912,199.229095 
	C46.230892,199.229095 57.865471,199.229095 70.500069,199.226944 
M49.504017,240.889832 
	C78.544785,240.889832 107.585556,240.889832 136.638336,240.889832 
	C136.638336,235.450546 136.638336,230.881836 136.638336,226.373566 
	C102.266777,226.373566 68.252487,226.373566 34.279308,226.373566 
	C34.279308,231.357147 34.279308,235.927444 34.279308,240.887726 
	C39.248398,240.887726 43.877155,240.887726 49.504017,240.889832 
M44.535404,152.155746 
	C41.106842,152.155746 37.678280,152.155746 34.149300,152.155746 
	C34.149300,157.753891 34.149300,162.467621 34.149300,167.442444 
	C38.005054,167.442444 41.461754,167.438660 44.918446,167.443069 
	C67.364052,167.471725 89.810165,167.600037 112.255020,167.485046 
	C121.548813,167.437424 121.376022,167.190796 121.924881,158.031479 
	C122.185043,153.689819 120.820419,152.112000 116.370911,152.137466 
	C92.756874,152.272629 69.141502,152.173294 44.535404,152.155746 
M166.497787,216.556732 
	C177.886002,216.556732 189.274216,216.556732 200.754303,216.556732 
	C200.868958,214.739807 200.992615,213.918152 200.953476,213.104340 
	C200.907364,212.145447 200.720230,211.193359 200.561447,209.989655 
	C144.999924,209.989655 89.665245,209.989655 34.282036,209.989655 
	C34.282036,212.489594 34.282036,214.374908 34.282036,216.570938 
	C78.273232,216.570938 121.885468,216.570938 166.497787,216.556732 
M134.000916,167.366013 
	C152.661957,167.408737 171.323029,167.493332 189.984024,167.478897 
	C201.672119,167.469849 201.582840,167.407684 200.968491,155.715042 
	C200.830399,153.086899 199.886581,152.152527 197.410339,152.200928 
	C193.912582,152.269257 190.412399,152.209564 186.913254,152.212753 
	C169.583328,152.228546 152.252853,152.189148 134.924408,152.358276 
	C133.274796,152.374374 130.384262,153.487671 130.219437,154.457077 
	C129.613037,158.023636 129.729553,161.758911 130.022308,165.394608 
	C130.082260,166.138977 132.079880,166.727280 134.000916,167.366013 
M164.291168,71.571884 
	C167.054886,71.442451 169.818604,71.313011 172.909744,71.168236 
	C172.909744,72.631363 172.953598,74.288841 172.900894,75.943237 
	C172.780304,79.728889 171.319061,82.620270 167.604080,84.162842 
	C163.848877,85.722115 161.647202,83.516663 159.473938,81.078926 
	C158.810852,80.335152 158.117554,78.936668 157.483429,78.962234 
	C154.037827,79.101158 150.606415,79.591850 147.170135,79.961441 
	C147.188766,80.434311 147.207413,80.907181 147.226044,81.380051 
	C148.356918,81.563057 149.487778,81.746063 149.825623,81.800735 
	C151.179596,84.866577 151.920303,87.843994 153.610535,90.114578 
	C157.808975,95.754562 163.872681,96.750404 170.222916,94.982460 
	C176.988617,93.098869 181.285904,87.946503 181.676407,81.264366 
	C182.371979,69.361549 181.871964,57.388870 181.871964,45.528923 
	C173.515717,43.890133 172.227310,44.880943 172.185745,52.641685 
	C172.175034,54.639416 172.650848,56.759319 172.122192,58.598625 
	C171.660812,60.203873 170.100098,61.493153 169.025116,62.922039 
	C167.679077,61.577980 165.461304,60.399311 165.168396,58.855442 
	C164.558121,55.638885 164.916183,52.228329 164.970520,48.899025 
	C165.018829,45.939575 163.669769,44.714954 160.706726,44.770851 
	C157.947769,44.822899 156.816528,46.019772 156.865692,48.732014 
	C156.941116,52.894619 156.830475,57.060261 156.870728,61.223923 
	C156.916840,65.997131 158.850113,69.571396 164.291168,71.571884 
M65.501144,106.013474 
	C58.062653,107.094582 49.596180,103.091011 41.989388,111.355171 
	C45.291126,111.978592 47.370846,112.703102 49.453815,112.712563 
	C67.598618,112.795036 85.744011,112.736473 103.889214,112.745049 
	C128.694214,112.756767 153.499649,112.854492 178.303299,112.684242 
	C180.133636,112.671677 183.326660,110.996758 183.507889,109.749184 
	C183.985641,106.460327 181.034042,106.061607 178.373245,106.068466 
	C177.207932,106.071472 176.042587,106.060226 174.877258,106.059753 
	C138.751755,106.045067 102.626244,106.030914 65.501144,106.013474 
M47.486111,73.317009 
	C47.377308,75.134850 47.067429,76.966743 47.193279,78.768196 
	C47.864948,88.382744 55.343834,95.444412 64.863602,95.577713 
	C74.354767,95.710617 82.437027,89.014481 82.806908,79.833321 
	C83.228096,69.378891 82.751984,58.891335 82.897530,48.421398 
	C82.961502,43.819309 80.091881,44.073242 76.958687,43.980572 
	C73.494568,43.878120 72.844131,45.672581 72.883095,48.665348 
	C73.002151,57.807774 73.058388,66.955444 72.875954,76.095833 
	C72.752190,82.296692 67.447922,85.497154 62.196140,82.745857 
	C58.265350,80.686600 58.987911,77.232735 59.240421,73.613541 
	C59.388302,71.494026 58.270969,67.604362 57.220203,67.423019 
	C54.816833,67.008232 52.000320,68.134407 49.571194,69.156609 
	C48.646057,69.545929 48.322323,71.364388 47.486111,73.317009 
M200.035538,226.317276 
	C181.520264,226.317276 163.004990,226.317276 144.510071,226.317276 
	C144.510071,231.411148 144.510071,235.973907 144.510071,240.638733 
	C163.372742,240.638733 181.889191,240.638733 200.684525,240.638733 
	C200.684525,235.861282 200.684525,231.420181 200.035538,226.317276 
M148.157837,70.393295 
	C153.539429,72.573532 155.722473,72.044785 155.654266,68.596458 
	C155.398438,55.664001 155.028336,42.731514 154.997742,29.798338 
	C154.989090,26.137581 153.484177,25.008114 150.255890,25.291439 
	C148.645325,25.432787 147.051559,25.765505 144.833435,26.106466 
	C144.833435,39.209854 144.730789,51.970867 144.953629,64.726196 
	C144.984039,66.466827 146.638870,68.179085 148.157837,70.393295 
M199.607620,267.805359 
	C196.213074,268.438568 192.839050,269.268463 189.415695,269.625641 
	C187.585587,269.816589 184.671539,269.859558 183.974121,268.815460 
	C181.526108,265.150574 178.892166,266.597137 175.903214,267.813812 
	C175.365997,266.839142 174.858826,265.918945 174.950699,266.085632 
	C172.274185,266.085632 170.058167,266.760468 168.691330,265.968933 
	C162.745575,262.525665 160.789444,262.116730 157.175232,267.904785 
	C154.275330,272.548920 150.866760,272.911682 146.471619,272.539246 
	C144.816483,272.399048 143.145126,272.410522 141.499390,272.206207 
	C136.137238,271.540405 130.783478,270.806946 125.115227,270.058411 
	C125.533615,270.781433 125.626083,271.201324 125.867424,271.321014 
	C138.383194,277.528961 151.864120,274.520294 164.930008,275.155823 
	C170.184891,275.411407 175.529007,273.901672 180.828064,273.163483 
	C188.233459,272.131958 195.634674,271.070557 203.037674,270.021942 
	C202.994492,269.455841 202.951294,268.889709 202.908112,268.323608 
	C202.062988,268.126740 201.217865,267.929871 199.607620,267.805359 
M82.363312,37.847973 
	C83.709038,34.806183 82.442322,32.482105 79.745010,31.456717 
	C78.467453,30.971052 75.783119,31.655676 75.128815,32.690590 
	C74.278976,34.034771 74.103516,36.684155 74.901527,38.012592 
	C76.690300,40.990337 79.415527,40.807526 82.363312,37.847973 
M106.492767,79.937714 
	C104.002388,79.934486 101.511215,79.891037 99.021851,79.939850 
	C96.732628,79.984734 94.445343,80.128906 92.157204,80.229340 
	C92.192345,80.603531 92.227493,80.977722 92.262634,81.351913 
	C100.722771,81.351913 109.182907,81.351913 117.643036,81.351913 
	C117.648079,80.878838 117.653122,80.405754 117.658157,79.932678 
	C114.267128,79.932678 110.876099,79.932678 106.492767,79.937714 
M145.715927,79.997093 
	C144.639435,80.144737 143.562927,80.292381 142.486435,80.440025 
	C142.646103,81.013794 142.805771,81.587563 142.965439,82.161331 
	C144.219116,81.560959 145.472809,80.960579 145.715927,79.997093 
z"/>
<path fill="#121E25" opacity="1.000000" stroke="none" 
	d="
M15.889971,279.993866 
	C16.021141,282.115997 16.152311,284.238129 16.299372,286.617310 
	C83.901115,286.617310 151.278458,286.617310 219.124725,286.617310 
	C219.124725,197.333450 219.124725,108.185135 219.124725,18.382141 
	C205.722824,18.382141 192.487732,18.382141 178.803604,18.382141 
	C178.803604,12.582856 178.803604,7.435076 178.428558,1.843150 
	C178.053513,1.399004 178.000000,1.000000 178.000000,1.000000 
	C180.700012,1.000000 183.400024,1.000000 186.845184,1.296026 
	C197.389816,1.714109 207.189270,1.836165 217.456329,1.971472 
	C220.754471,1.987725 223.585037,1.991861 226.415604,1.993512 
	C233.995346,1.997932 233.989273,1.997510 233.990936,9.768637 
	C234.011765,106.838394 234.034485,203.908142 233.744141,301.264465 
	C231.623718,301.705414 229.816147,301.990540 228.008026,301.993958 
	C210.009308,302.028076 192.010498,302.015656 173.542343,302.010925 
	C132.285110,302.004822 91.497215,301.990723 50.709412,302.045715 
	C48.805847,302.048309 46.903114,302.667816 45.000000,303.000000 
	C42.958332,303.000000 40.916668,303.000000 38.284012,302.789856 
	C37.128681,302.719818 36.564339,302.859894 36.000000,303.000000 
	C33.958332,303.000000 31.916666,303.000000 29.241955,302.668457 
	C26.441208,301.950989 24.269117,301.219116 22.106665,301.246582 
	C16.529800,301.317322 10.955691,301.899231 5.384128,301.851440 
	C4.239884,301.841644 3.111522,299.979187 1.979457,298.503845 
	C1.986234,221.358719 1.989394,144.680405 1.996463,67.533218 
	C1.999664,47.269474 1.971098,27.474480 2.042953,7.679848 
	C2.049854,5.778683 2.681562,3.879786 3.489559,1.983886 
	C18.004580,1.948720 32.053261,1.909506 46.538437,1.891601 
	C49.877773,1.992259 52.780609,2.071607 55.683449,2.150956 
	C55.683449,7.425996 55.683449,12.701036 55.683449,18.434603 
	C42.439770,18.434603 29.622467,18.434603 16.096073,18.434603 
	C16.096073,21.620872 16.096073,24.370296 15.689421,27.620779 
	C15.492001,29.079191 15.701233,30.036547 15.910464,30.993900 
	C15.962228,54.023758 16.013992,77.053612 15.597921,100.660286 
	C14.863029,106.482925 14.567249,111.727837 14.398587,116.976822 
	C14.388209,117.299828 15.381007,117.655060 15.907055,117.995293 
	C15.958899,145.542343 16.012901,173.089401 16.060417,200.636459 
	C16.068148,205.117889 16.047171,209.599396 15.578506,214.659958 
	C14.752362,215.927475 14.073047,216.613968 14.068798,217.304611 
	C13.997658,228.868149 13.964700,240.432724 14.086407,251.995331 
	C14.096991,253.000885 15.250113,253.994431 15.872526,254.993546 
	C15.945124,261.689117 16.017721,268.384705 15.674051,275.612000 
	C15.468513,277.427124 15.679242,278.710480 15.889971,279.993866 
z"/>
<path fill="#101C23" opacity="1.000000" stroke="none" 
	d="
M173.869171,18.467091 
	C139.631439,18.614962 105.393715,18.764118 71.155968,18.908735 
	C67.684967,18.923397 64.213852,18.910704 60.055378,18.910704 
	C60.055378,13.082574 60.055378,7.508746 60.027687,1.467459 
	C90.020897,1.000000 120.041786,1.000000 150.842728,1.274682 
	C154.741180,1.682717 157.863403,1.758111 160.977112,1.962943 
	C165.703247,2.273849 170.423462,2.674644 175.146194,3.037255 
	C175.072083,7.376017 174.997986,11.714779 174.690460,16.654591 
	C174.261093,17.659456 174.065140,18.063274 173.869171,18.467091 
z"/>
<path fill="#373A38" opacity="1.000000" stroke="none" 
	d="
M234.056732,300.977905 
	C234.034485,203.908142 234.011765,106.838394 233.990936,9.768637 
	C233.989273,1.997510 233.995346,1.997932 226.415604,1.993512 
	C223.585037,1.991861 220.754471,1.987725 217.460205,1.732147 
	C216.996506,1.479573 217.000000,1.000000 217.000000,1.000000 
	C222.991730,1.000000 228.983475,1.000000 235.000000,1.000000 
	C235.000000,100.687561 235.000000,200.375122 234.764145,300.527374 
	C234.528290,300.992065 234.056732,300.977905 234.056732,300.977905 
z"/>
<path fill="#313535" opacity="1.000000" stroke="none" 
	d="
M1.992553,68.002075 
	C1.989394,144.680405 1.986234,221.358719 1.735747,298.515076 
	C1.488419,298.993103 1.000000,299.000000 1.000000,299.000000 
	C1.000000,222.312439 1.000000,145.624878 1.248139,68.468674 
	C1.496279,68.000023 1.992553,68.002075 1.992553,68.002075 
z"/>
<path fill="#232729" opacity="1.000000" stroke="none" 
	d="
M45.468658,303.000000 
	C46.903114,302.667816 48.805847,302.048309 50.709412,302.045715 
	C91.497215,301.990723 132.285110,302.004822 173.537872,302.256744 
	C174.002762,302.507965 174.000000,303.000000 174.000000,303.000000 
	C131.312439,303.000000 88.624878,303.000000 45.468658,303.000000 
z"/>
<path fill="#2B3130" opacity="1.000000" stroke="none" 
	d="
M1.996463,67.533218 
	C1.992553,68.002075 1.496279,68.000023 1.248139,68.000015 
	C1.000000,46.987831 0.981963,25.975609 1.042847,4.963614 
	C1.046678,3.641496 1.666667,2.321163 2.500594,1.245083 
	C3.001188,1.490165 3.023219,1.979837 3.023219,1.979837 
	C2.681562,3.879786 2.049854,5.778683 2.042953,7.679848 
	C1.971098,27.474480 1.999664,47.269474 1.996463,67.533218 
z"/>
<path fill="#2C2F30" opacity="1.000000" stroke="none" 
	d="
M174.468658,303.000000 
	C174.000000,303.000000 174.002762,302.507965 174.007233,302.262146 
	C192.010498,302.015656 210.009308,302.028076 228.008026,301.993958 
	C229.816147,301.990540 231.623718,301.705414 233.744141,301.264465 
	C234.056732,300.977905 234.528290,300.992065 234.764145,300.996033 
	C235.610260,304.036591 233.304764,302.964661 232.034912,302.967773 
	C213.002457,303.014343 193.969879,303.000000 174.468658,303.000000 
z"/>
<path fill="#444645" opacity="1.000000" stroke="none" 
	d="
M3.489559,1.983886 
	C3.023219,1.979837 3.001188,1.490165 3.000594,1.245083 
	C17.020895,1.000000 31.041788,1.000000 45.556168,1.217650 
	C46.049648,1.435301 46.101940,1.870291 46.101940,1.870291 
	C32.053261,1.909506 18.004580,1.948720 3.489559,1.983886 
z"/>
<path fill="#202628" opacity="1.000000" stroke="none" 
	d="
M1.000000,299.500000 
	C1.000000,299.000000 1.488419,298.993103 1.732129,298.981873 
	C3.111522,299.979187 4.239884,301.841644 5.384128,301.851440 
	C10.955691,301.899231 16.529800,301.317322 22.106665,301.246582 
	C24.269117,301.219116 26.441208,301.950989 28.804455,302.668457 
	C19.666645,303.000000 10.333292,303.000000 1.000000,303.000000 
	C1.000000,301.968262 1.000000,300.984131 1.000000,299.500000 
z"/>
<path fill="#3D403E" opacity="1.000000" stroke="none" 
	d="
M216.531342,1.000000 
	C217.000000,1.000000 216.996506,1.479573 216.992615,1.718897 
	C207.189270,1.836165 197.389816,1.714109 187.295166,1.296026 
	C196.687561,1.000000 206.375122,1.000000 216.531342,1.000000 
z"/>
<path fill="#424A4D" opacity="1.000000" stroke="none" 
	d="
M175.455902,2.935222 
	C170.423462,2.674644 165.703247,2.273849 160.977112,1.962943 
	C157.863403,1.758111 154.741180,1.682717 151.311386,1.274682 
	C159.687561,1.000000 168.375137,1.000000 177.531342,1.000000 
	C178.000000,1.000000 178.053513,1.399004 178.055725,1.600286 
	C177.293808,2.145441 176.529709,2.489315 175.455902,2.935222 
z"/>
<path fill="#656B6E" opacity="1.000000" stroke="none" 
	d="
M46.538437,1.891601 
	C46.101940,1.870291 46.049648,1.435301 46.024826,1.217650 
	C49.030594,1.000000 52.061188,1.000000 55.545891,1.000000 
	C55.990013,1.203575 55.980030,1.407150 55.826752,1.880841 
	C52.780609,2.071607 49.877773,1.992259 46.538437,1.891601 
z"/>
<path fill="#202628" opacity="1.000000" stroke="none" 
	d="
M36.333328,303.000000 
	C36.564339,302.859894 37.128681,302.719818 37.846512,302.789856 
	C37.555553,303.000000 37.111111,303.000000 36.333328,303.000000 
z"/>
<path fill="#15698C" opacity="1.000000" stroke="none" 
	d="
M120.000023,122.047348 
	C145.485992,122.064362 170.472549,122.177643 195.457504,122.026749 
	C199.750763,122.000816 201.626907,123.103714 201.088699,127.618919 
	C200.757919,130.393875 201.027496,133.240387 201.027496,136.540436 
	C145.136688,136.540436 89.631622,136.540436 33.688225,136.540436 
	C33.688225,131.790207 33.688225,127.212303 33.688225,122.054329 
	C62.313442,122.054329 90.906754,122.054329 120.000023,122.047348 
z"/>
<path fill="#15698E" opacity="1.000000" stroke="none" 
	d="
M70.000061,199.228027 
	C57.865471,199.229095 46.230892,199.229095 34.153912,199.229095 
	C34.153912,194.182526 34.153912,189.446213 34.153912,184.327530 
	C89.405724,184.327530 144.783340,184.327530 200.707153,184.327530 
	C200.707153,188.538010 200.975937,192.826767 200.490356,197.028351 
	C200.387817,197.915558 197.526123,199.097794 195.929962,199.106674 
	C170.611115,199.247635 145.291306,199.222092 119.971725,199.228745 
	C103.481171,199.233078 86.990623,199.227890 70.000061,199.228027 
z"/>
<path fill="#166A8D" opacity="1.000000" stroke="none" 
	d="
M49.004967,240.888779 
	C43.877155,240.887726 39.248398,240.887726 34.279308,240.887726 
	C34.279308,235.927444 34.279308,231.357147 34.279308,226.373566 
	C68.252487,226.373566 102.266777,226.373566 136.638336,226.373566 
	C136.638336,230.881836 136.638336,235.450546 136.638336,240.889832 
	C107.585556,240.889832 78.544785,240.889832 49.004967,240.888779 
z"/>
<path fill="#186C8E" opacity="1.000000" stroke="none" 
	d="
M45.030998,152.155472 
	C69.141502,152.173294 92.756874,152.272629 116.370911,152.137466 
	C120.820419,152.112000 122.185043,153.689819 121.924881,158.031479 
	C121.376022,167.190796 121.548813,167.437424 112.255020,167.485046 
	C89.810165,167.600037 67.364052,167.471725 44.918446,167.443069 
	C41.461754,167.438660 38.005054,167.442444 34.149300,167.442444 
	C34.149300,162.467621 34.149300,157.753891 34.149300,152.155746 
	C37.678280,152.155746 41.106842,152.155746 45.030998,152.155472 
z"/>
<path fill="#227091" opacity="1.000000" stroke="none" 
	d="
M165.997742,216.563843 
	C121.885468,216.570938 78.273232,216.570938 34.282036,216.570938 
	C34.282036,214.374908 34.282036,212.489594 34.282036,209.989655 
	C89.665245,209.989655 144.999924,209.989655 200.561447,209.989655 
	C200.720230,211.193359 200.907364,212.145447 200.953476,213.104340 
	C200.992615,213.918152 200.868958,214.739807 200.754303,216.556732 
	C189.274216,216.556732 177.886002,216.556732 165.997742,216.563843 
z"/>
<path fill="#162329" opacity="1.000000" stroke="none" 
	d="
M113.996132,26.991472 
	C116.884872,26.991472 119.773613,26.991472 122.966888,26.991472 
	C122.966888,32.497318 122.966888,37.620266 122.966888,41.671410 
	C128.109116,43.199886 133.039642,43.857300 137.029556,46.150963 
	C139.468643,47.553093 140.462524,51.469193 141.799133,54.868690 
	C141.651154,56.983677 141.809494,58.486202 141.967850,59.988731 
	C141.042343,66.371902 136.929016,70.816650 130.991104,71.849915 
	C123.149628,73.214417 117.893234,70.125557 112.612137,60.743004 
	C108.573776,69.142487 102.634834,73.740379 93.193031,70.260918 
	C87.775887,68.264618 84.669289,62.709427 85.073769,56.676437 
	C85.445229,51.135963 89.911346,45.668056 95.171349,44.313869 
	C101.949661,42.568787 107.054916,45.206852 112.321747,53.846603 
	C112.636864,51.930473 112.814735,50.848888 113.350021,49.332314 
	C113.519264,48.264805 113.331100,47.632282 113.142929,46.999760 
	C113.088066,46.552452 113.033203,46.105148 113.389786,45.247482 
	C113.575241,43.558006 113.349251,42.278889 113.123260,40.999771 
	C113.065804,40.553452 113.008339,40.107136 113.371811,39.243469 
	C115.642838,36.934231 115.866653,35.264736 113.132729,33.999710 
	C113.067627,32.276352 113.002518,30.552994 113.220573,28.284534 
	C113.736053,27.535006 113.900185,27.285686 113.996132,26.991472 
M128.404739,62.575325 
	C132.312500,62.058685 134.284012,59.598721 133.081467,56.038166 
	C132.482422,54.264481 129.843903,52.265591 127.985199,52.113548 
	C126.430435,51.986366 123.755417,54.084671 123.186371,55.748199 
	C121.976692,59.284458 123.840034,61.795826 128.404739,62.575325 
M95.685722,61.058907 
	C98.965111,63.089321 101.917831,63.087341 102.865196,58.814537 
	C103.206505,57.275208 102.142868,54.782234 100.881462,53.734051 
	C99.882942,52.904331 96.389137,53.100498 96.116501,53.740822 
	C95.260529,55.751198 95.402550,58.186497 95.685722,61.058907 
z"/>
<path fill="#186D90" opacity="1.000000" stroke="none" 
	d="
M133.592621,167.376770 
	C132.079880,166.727280 130.082260,166.138977 130.022308,165.394608 
	C129.729553,161.758911 129.613037,158.023636 130.219437,154.457077 
	C130.384262,153.487671 133.274796,152.374374 134.924408,152.358276 
	C152.252853,152.189148 169.583328,152.228546 186.913254,152.212753 
	C190.412399,152.209564 193.912582,152.269257 197.410339,152.200928 
	C199.886581,152.152527 200.830399,153.086899 200.968491,155.715042 
	C201.582840,167.407684 201.672119,167.469849 189.984024,167.478897 
	C171.323029,167.493332 152.661957,167.408737 133.592621,167.376770 
z"/>
<path fill="#18232A" opacity="1.000000" stroke="none" 
	d="
M163.913437,71.435928 
	C158.850113,69.571396 156.916840,65.997131 156.870728,61.223923 
	C156.830475,57.060261 156.941116,52.894619 156.865692,48.732014 
	C156.816528,46.019772 157.947769,44.822899 160.706726,44.770851 
	C163.669769,44.714954 165.018829,45.939575 164.970520,48.899025 
	C164.916183,52.228329 164.558121,55.638885 165.168396,58.855442 
	C165.461304,60.399311 167.679077,61.577980 169.025116,62.922035 
	C170.100098,61.493153 171.660812,60.203873 172.122192,58.598625 
	C172.650848,56.759319 172.175034,54.639416 172.185745,52.641685 
	C172.227310,44.880943 173.515717,43.890133 181.871964,45.528923 
	C181.871964,57.388870 182.371979,69.361549 181.676407,81.264366 
	C181.285904,87.946503 176.988617,93.098869 170.222916,94.982460 
	C163.872681,96.750404 157.808975,95.754562 153.610535,90.114578 
	C151.920303,87.843994 151.179596,84.866577 149.825623,81.800735 
	C149.487778,81.746063 148.356918,81.563057 147.226044,81.380051 
	C147.207413,80.907181 147.188766,80.434311 147.170135,79.961441 
	C150.606415,79.591850 154.037827,79.101158 157.483429,78.962234 
	C158.117554,78.936668 158.810852,80.335152 159.473938,81.078926 
	C161.647202,83.516663 163.848877,85.722115 167.604080,84.162842 
	C171.319061,82.620270 172.780304,79.728889 172.900894,75.943237 
	C172.953598,74.288841 172.909744,72.631363 172.909744,71.168236 
	C169.818604,71.313011 167.054886,71.442451 163.913437,71.435928 
z"/>
<path fill="#297391" opacity="1.000000" stroke="none" 
	d="
M66.000938,106.015076 
	C102.626244,106.030914 138.751755,106.045067 174.877258,106.059753 
	C176.042587,106.060226 177.207932,106.071472 178.373245,106.068466 
	C181.034042,106.061607 183.985641,106.460327 183.507889,109.749184 
	C183.326660,110.996758 180.133636,112.671677 178.303299,112.684242 
	C153.499649,112.854492 128.694214,112.756767 103.889214,112.745049 
	C85.744011,112.736473 67.598618,112.795036 49.453815,112.712563 
	C47.370846,112.703102 45.291126,111.978592 41.989388,111.355171 
	C49.596180,103.091011 58.062653,107.094582 66.000938,106.015076 
z"/>
<path fill="#162228" opacity="1.000000" stroke="none" 
	d="
M47.605305,72.924263 
	C48.322323,71.364388 48.646057,69.545929 49.571194,69.156609 
	C52.000320,68.134407 54.816833,67.008232 57.220203,67.423019 
	C58.270969,67.604362 59.388302,71.494026 59.240421,73.613541 
	C58.987911,77.232735 58.265350,80.686600 62.196140,82.745857 
	C67.447922,85.497154 72.752190,82.296692 72.875954,76.095833 
	C73.058388,66.955444 73.002151,57.807774 72.883095,48.665348 
	C72.844131,45.672581 73.494568,43.878120 76.958687,43.980572 
	C80.091881,44.073242 82.961502,43.819309 82.897530,48.421398 
	C82.751984,58.891335 83.228096,69.378891 82.806908,79.833321 
	C82.437027,89.014481 74.354767,95.710617 64.863602,95.577713 
	C55.343834,95.444412 47.864948,88.382744 47.193279,78.768196 
	C47.067429,76.966743 47.377308,75.134850 47.605305,72.924263 
z"/>
<path fill="#176A8D" opacity="1.000000" stroke="none" 
	d="
M200.360031,226.648178 
	C200.684525,231.420181 200.684525,235.861282 200.684525,240.638733 
	C181.889191,240.638733 163.372742,240.638733 144.510071,240.638733 
	C144.510071,235.973907 144.510071,231.411148 144.510071,226.317276 
	C163.004990,226.317276 181.520264,226.317276 200.360031,226.648178 
z"/>
<path fill="#1A262D" opacity="1.000000" stroke="none" 
	d="
M147.849701,70.148888 
	C146.638870,68.179085 144.984039,66.466827 144.953629,64.726196 
	C144.730789,51.970867 144.833435,39.209854 144.833435,26.106466 
	C147.051559,25.765505 148.645325,25.432787 150.255890,25.291439 
	C153.484177,25.008114 154.989090,26.137581 154.997742,29.798338 
	C155.028336,42.731514 155.398438,55.664001 155.654266,68.596458 
	C155.722473,72.044785 153.539429,72.573532 147.849701,70.148888 
z"/>
<path fill="#242C30" opacity="1.000000" stroke="none" 
	d="
M199.990173,267.769165 
	C201.217865,267.929871 202.062988,268.126740 202.908112,268.323608 
	C202.951294,268.889709 202.994492,269.455841 203.037674,270.021942 
	C195.634674,271.070557 188.233459,272.131958 180.828064,273.163483 
	C175.529007,273.901672 170.184891,275.411407 164.930008,275.155823 
	C151.864120,274.520294 138.383194,277.528961 125.867424,271.321014 
	C125.626083,271.201324 125.533615,270.781433 125.115227,270.058411 
	C130.783478,270.806946 136.137238,271.540405 141.499390,272.206207 
	C143.145126,272.410522 144.816483,272.399048 146.471619,272.539246 
	C150.866760,272.911682 154.275330,272.548920 157.175232,267.904785 
	C160.789444,262.116730 162.745575,262.525665 168.691330,265.968933 
	C170.058167,266.760468 172.274185,266.085632 174.950699,266.085632 
	C174.858826,265.918945 175.365997,266.839142 175.903214,267.813812 
	C178.892166,266.597137 181.526108,265.150574 183.974121,268.815460 
	C184.671539,269.859558 187.585587,269.816589 189.415695,269.625641 
	C192.839050,269.268463 196.213074,268.438568 199.990173,267.769165 
z"/>
<path fill="#0C161B" opacity="1.000000" stroke="none" 
	d="
M15.949730,254.530899 
	C15.250113,253.994431 14.096991,253.000885 14.086407,251.995331 
	C13.964700,240.432724 13.997658,228.868149 14.068798,217.304611 
	C14.073047,216.613968 14.752362,215.927475 15.495794,215.122543 
	C15.925005,228.026764 15.975970,241.047516 15.949730,254.530899 
z"/>
<path fill="#262E33" opacity="1.000000" stroke="none" 
	d="
M82.159500,38.181828 
	C79.415527,40.807526 76.690300,40.990337 74.901527,38.012592 
	C74.103516,36.684155 74.278976,34.034771 75.128815,32.690590 
	C75.783119,31.655676 78.467453,30.971052 79.745010,31.456717 
	C82.442322,32.482105 83.709038,34.806183 82.159500,38.181828 
z"/>
<path fill="#293436" opacity="1.000000" stroke="none" 
	d="
M106.988922,79.935196 
	C110.876099,79.932678 114.267128,79.932678 117.658157,79.932678 
	C117.653122,80.405754 117.648079,80.878838 117.643036,81.351913 
	C109.182907,81.351913 100.722771,81.351913 92.262634,81.351913 
	C92.227493,80.977722 92.192345,80.603531 92.157204,80.229340 
	C94.445343,80.128906 96.732628,79.984734 99.021851,79.939850 
	C101.511215,79.891037 104.002388,79.934486 106.988922,79.935196 
z"/>
<path fill="#0B151B" opacity="1.000000" stroke="none" 
	d="
M15.983376,117.533417 
	C15.381007,117.655060 14.388209,117.299828 14.398587,116.976822 
	C14.567249,111.727837 14.863029,106.482925 15.508986,101.121941 
	C15.945155,106.361702 16.002426,111.716621 15.983376,117.533417 
z"/>
<path fill="#182329" opacity="1.000000" stroke="none" 
	d="
M113.049683,34.410751 
	C115.866653,35.264736 115.642838,36.934231 113.452698,38.913048 
	C113.063980,37.607246 113.015305,36.214520 113.049683,34.410751 
z"/>
<path fill="#182329" opacity="1.000000" stroke="none" 
	d="
M142.160904,59.719231 
	C141.809494,58.486202 141.651154,56.983677 141.745941,55.240719 
	C142.117386,56.483437 142.235672,57.966587 142.160904,59.719231 
z"/>
<path fill="#182329" opacity="1.000000" stroke="none" 
	d="
M113.044662,41.395332 
	C113.349251,42.278889 113.575241,43.558006 113.478424,44.918579 
	C113.092445,43.930325 113.029259,42.860611 113.044662,41.395332 
z"/>
<path fill="#0A1418" opacity="1.000000" stroke="none" 
	d="
M15.968663,279.599670 
	C15.679242,278.710480 15.468513,277.427124 15.588902,276.074036 
	C15.962464,277.071350 16.004910,278.138397 15.968663,279.599670 
z"/>
<path fill="#0A1319" opacity="1.000000" stroke="none" 
	d="
M15.989004,30.624544 
	C15.701233,30.036547 15.492001,29.079191 15.599966,28.063583 
	C15.967289,28.755283 16.017416,29.505236 15.989004,30.624544 
z"/>
<path fill="#18232A" opacity="1.000000" stroke="none" 
	d="
M146.221207,80.178650 
	C145.472809,80.960579 144.219116,81.560959 142.965439,82.161331 
	C142.805771,81.587563 142.646103,81.013794 142.486435,80.440025 
	C143.562927,80.292381 144.639435,80.144737 146.221207,80.178650 
z"/>
<path fill="#182329" opacity="1.000000" stroke="none" 
	d="
M113.061050,47.330376 
	C113.331100,47.632282 113.519264,48.264805 113.436234,48.948761 
	C113.103081,48.553791 113.041130,48.107395 113.061050,47.330376 
z"/>
<path fill="#424A4D" opacity="1.000000" stroke="none" 
	d="
M174.159424,18.512897 
	C174.065140,18.063274 174.261093,17.659456 174.642487,17.115255 
	C174.701843,17.502815 174.575760,18.030758 174.159424,18.512897 
z"/>
<path fill="#182329" opacity="1.000000" stroke="none" 
	d="
M113.717010,27.002922 
	C113.900185,27.285686 113.736053,27.535006 113.314102,27.862419 
	C113.228943,27.661730 113.333420,27.338049 113.717010,27.002922 
z"/>
<path fill="#DEE4E5" opacity="1.000000" stroke="none" 
	d="
M128.036926,62.550095 
	C123.840034,61.795826 121.976692,59.284458 123.186371,55.748199 
	C123.755417,54.084671 126.430435,51.986366 127.985199,52.113548 
	C129.843903,52.265591 132.482422,54.264481 133.081467,56.038166 
	C134.284012,59.598721 132.312500,62.058685 128.036926,62.550095 
z"/>
<path fill="#DAE0DF" opacity="1.000000" stroke="none" 
	d="
M95.421906,60.758072 
	C95.402550,58.186497 95.260529,55.751198 96.116501,53.740822 
	C96.389137,53.100498 99.882942,52.904331 100.881462,53.734051 
	C102.142868,54.782234 103.206505,57.275208 102.865196,58.814537 
	C101.917831,63.087341 98.965111,63.089321 95.421906,60.758072 
z"/>
</svg>